<?xml version='1.0' encoding='utf-8'?>
<svg xmlns="http://www.w3.org/2000/svg" width="60" height="84" viewBox="0 0 60 84"><defs><filter id="glow-blur" x="0" y="0" width="100%" height="100%"><feGaussianBlur stdDeviation="2" /></filter></defs><circle cx="10" cy="12" r="5.5" fill="#FFFFFF" opacity="0.63" filter="url(#glow-blur)" /><circle cx="20" cy="12" r="5.5" fill="#FFFFFF" opacity="0.63" filter="url(#glow-blur)" /><circle cx="30" cy="12" r="5.5" fill="#FFFFFF" opacity="0.63" filter="url(#glow-blur)" /><circle cx="40" cy="12" r="5.5" fill="#FFFFFF" opacity="0.63" filter="url(#glow-blur)" /><circle cx="50" cy="12" r="5.5" fill="#FFFFFF" opacity="0.63" filter="url(#glow-blur)" /><circle cx="10" cy="22" r="5.5" fill="#FFFFFF" opacity="0.63" filter="url(#glow-blur)" /><circle cx="10" cy="32" r="5.5" fill="#FFFFFF" opacity="0.63" filter="url(#glow-blur)" /><circle cx="10" cy="42" r="5.5" fill="#FFFFFF" opacity="0.63" filter="url(#glow-blur)" /><circle cx="20" cy="42" r="5.5" fill="#FFFFFF" opacity="0.63" filter="url(#glow-blur)" /><circle cx="30" cy="42" r="5.5" fill="#FFFFFF" opacity="0.63" filter="url(#glow-blur)" /><circle cx="40" cy="42" r="5.5" fill="#FFFFFF" opacity="0.63" filter="url(#glow-blur)" /><circle cx="50" cy="42" r="5.5" fill="#FFFFFF" opacity="0.63" filter="url(#glow-blur)" /><circle cx="10" cy="52" r="5.5" fill="#FFFFFF" opacity="0.63" filter="url(#glow-blur)" /><circle cx="50" cy="52" r="5.5" fill="#FFFFFF" opacity="0.63" filter="url(#glow-blur)" /><circle cx="10" cy="62" r="5.5" fill="#FFFFFF" opacity="0.63" filter="url(#glow-blur)" /><circle cx="50" cy="62" r="5.5" fill="#FFFFFF" opacity="0.63" filter="url(#glow-blur)" /><circle cx="10" cy="72" r="5.5" fill="#FFFFFF" opacity="0.63" filter="url(#glow-blur)" /><circle cx="20" cy="72" r="5.5" fill="#FFFFFF" opacity="0.63" filter="url(#glow-blur)" /><circle cx="30" cy="72" r="5.5" fill="#FFFFFF" opacity="0.63" filter="url(#glow-blur)" /><circle cx="40" cy="72" r="5.5" fill="#FFFFFF" opacity="0.63" filter="url(#glow-blur)" /><circle cx="50" cy="72" r="5.5" fill="#FFFFFF" opacity="0.63" filter="url(#glow-blur)" /></svg>